<svg width="1024" height="1024" viewBox="0 0 1024 1024" fill="none" xmlns="http://www.w3.org/2000/svg">
<path d="M0 0C337.92 0 675.84 0 1024 0C1024 337.92 1024 675.84 1024 1024C686.08 1024 348.16 1024 0 1024C0 686.08 0 348.16 0 0Z" fill="#FDFDFD"/>
<path d="M646.979 415.57C663.843 416.101 677.816 424.646 689.524 436.224C699.836 448.782 706.939 463.359 714.372 477.722C717.907 484.55 721.491 491.352 725.073 498.155C726.852 501.535 728.628 504.917 730.402 508.3C736.846 520.585 743.443 532.773 750.232 544.871C752.184 548.356 754.135 551.841 756.087 555.326C757.644 558.104 757.644 558.104 759.232 560.938C766.031 573.131 772.755 585.365 779.491 597.593C806.498 646.608 833.579 695.578 861.219 744.24C872.85 764.788 884.117 785.526 895.291 806.326C896.57 808.706 897.85 811.085 899.168 813.537C900.289 815.628 901.409 817.72 902.563 819.874C904.929 824.161 907.454 828.363 910.083 832.494C913.428 838.468 913.428 838.468 913.428 846C867.859 846 822.29 846 775.339 846C757.079 813.234 738.83 780.481 721.045 747.455C709.08 725.252 696.805 703.245 684.352 681.313C675.044 664.913 665.822 648.47 656.708 631.962C655.538 629.852 654.367 627.743 653.161 625.57C652.092 623.627 651.023 621.684 649.921 619.683C648.985 617.986 648.049 616.289 647.084 614.541C644.782 609.993 644.782 609.993 642.271 602.461C640.614 602.461 638.957 602.461 637.25 602.461C636.796 604.623 636.796 604.623 636.332 606.828C634.652 612.813 632.341 617.534 629.335 622.968C628.228 624.98 627.12 626.991 625.979 629.064C624.779 631.211 623.579 633.358 622.343 635.571C621.092 637.825 619.842 640.079 618.554 642.402C610.035 657.689 601.284 672.822 592.345 687.866C582.215 704.947 572.384 722.196 562.556 739.452C547.734 765.474 532.76 791.398 517.591 817.221C516.228 819.546 514.865 821.871 513.46 824.267C512.269 826.291 511.079 828.316 509.852 830.401C506.95 835.505 504.297 840.749 501.671 846C456.102 846 410.532 846 363.582 846C366.682 838.251 369.387 831.59 373.35 824.453C374.285 822.767 375.219 821.081 376.182 819.343C377.712 816.615 377.712 816.615 379.274 813.832C380.914 810.894 380.914 810.894 382.587 807.898C394.649 786.406 407.12 765.152 419.573 743.885C451.603 689.16 482.969 634.047 514.365 578.957C531.485 548.919 548.647 518.907 566.008 489.008C567.404 486.594 568.799 484.181 570.237 481.694C603.378 424.809 603.378 424.809 627.207 418.08C633.777 416.956 640.349 416.318 646.979 415.57Z" fill="#0040FF"/>
<path d="M511.714 143C519.265 149.99 524.221 156.609 528.995 165.704C530.309 168.174 531.622 170.644 532.976 173.188C534.348 175.809 535.721 178.431 537.135 181.131C549.157 203.929 549.157 203.929 562.203 226.148C563.381 228.053 564.558 229.959 565.772 231.923C567.959 235.413 570.184 238.88 572.453 242.317C577.253 250.011 579.488 255.334 579.709 264.456C576.103 276.539 570.431 286.476 563.968 297.252C562.632 299.536 561.295 301.819 559.917 304.172C557.058 309.052 554.186 313.925 551.302 318.79C543.957 331.191 536.708 343.648 529.446 356.097C527.977 358.609 526.507 361.121 524.993 363.71C510.735 388.116 496.855 412.729 482.984 437.357C464.729 469.711 446.152 501.875 427.404 533.946C411.784 560.677 396.326 587.5 380.873 614.328C376.187 622.458 371.494 630.584 366.799 638.709C346.444 673.94 326.203 709.236 306.037 744.576C297.025 760.367 288.004 776.152 278.983 791.937C274.818 799.225 270.653 806.514 266.488 813.802C260.355 824.535 254.222 835.267 248.089 846C202.52 846 156.95 846 110 846C113.88 836.3 117.814 828.113 122.975 819.137C124.577 816.343 126.179 813.548 127.83 810.668C129.576 807.643 131.321 804.617 133.067 801.592C134.882 798.432 136.697 795.273 138.51 792.113C144.06 782.451 149.625 772.798 155.193 763.146C156.82 760.325 158.446 757.504 160.122 754.598C166.297 743.892 172.475 733.187 178.657 722.486C190.296 702.332 201.869 682.143 213.41 661.933C214.258 660.448 215.107 658.962 215.981 657.432C223.028 645.09 230.071 632.747 237.112 620.402C251.794 594.664 266.535 568.961 281.356 543.302C294.54 520.475 307.671 497.619 320.743 474.728C321.573 473.274 322.404 471.82 323.259 470.322C331.732 455.486 340.199 440.646 348.658 425.803C352.898 418.363 357.141 410.924 361.385 403.487C362.221 402.022 363.056 400.557 363.917 399.048C375.445 378.848 387.117 358.737 398.889 338.679C416.17 309.199 432.736 279.338 449.261 249.43C503.651 151.063 503.651 151.063 511.714 143Z" fill="#0040FF"/>
</svg>
