<svg width="1254" height="1254" viewBox="0 0 1254 1254" fill="none" xmlns="http://www.w3.org/2000/svg">
<g clip-path="url(#clip0_9_150)">
<path d="M0 0C413.82 0 827.64 0 1254 0C1254 413.82 1254 827.64 1254 1254C840.18 1254 426.36 1254 0 1254C0 840.18 0 426.36 0 0Z" fill="#FDFDFD"/>
<path d="M599 532C609.23 532 619.46 532 630 532C631.591 536.229 633.181 540.459 634.82 544.816C635.841 547.528 636.862 550.24 637.883 552.951C639.496 557.236 641.11 561.521 642.721 565.806C644.023 569.269 645.326 572.732 646.631 576.194C647.123 577.501 647.615 578.809 648.106 580.117C651.215 588.393 654.423 596.621 657.738 604.817C659.163 608.41 660.402 612.002 661.562 615.688C662.931 620.032 664.475 624.2 666.246 628.398C669.526 636.171 672.505 644.052 675.5 651.938C676.061 653.411 676.622 654.884 677.184 656.357C678.009 658.525 678.835 660.692 679.66 662.859C681.738 668.319 683.833 673.771 685.932 679.223C689.742 689.13 693.397 699.078 696.877 709.105C698.224 712.944 699.672 716.675 701.375 720.375C703 724 703 724 703 727C692.11 727 681.22 727 670 727C662.676 706.492 662.676 706.492 661.35 702.769C660.43 700.191 659.496 697.62 658.552 695.052C658.32 694.415 658.088 693.778 657.848 693.122C657.204 691.358 656.556 689.595 655.907 687.833C655 685 655 685 655 682C627.94 682 600.88 682 573 682C572.505 684.97 572.505 684.97 572 688C571.326 689.772 570.593 691.522 569.812 693.25C567.242 699.2 565.186 705.244 563.232 711.417C561.477 716.869 559.36 721.69 557 727C546.44 727 535.88 727 525 727C527.254 719.109 527.254 719.109 528.586 715.293C528.875 714.464 529.164 713.635 529.461 712.781C529.763 711.925 530.064 711.069 530.375 710.188C530.845 708.851 530.845 708.851 531.324 707.488C533.734 700.671 536.323 693.964 539.141 687.305C542.93 678.311 546.339 669.198 549.722 660.047C552.706 651.986 555.789 643.974 559 636C561.853 628.91 564.611 621.796 567.273 614.633C574.025 596.475 580.987 578.395 587.938 560.312C588.26 559.472 588.583 558.632 588.915 557.767C589.848 555.34 590.781 552.914 591.715 550.488C592.124 549.424 592.124 549.424 592.541 548.338C594.647 542.872 596.824 537.441 599 532Z" fill="#0040FF"/>
<path d="M985.313 587.688C986.281 587.671 987.25 587.655 988.248 587.639C1003.7 587.628 1017.9 593.626 1030 603C1030.84 603.628 1031.68 604.256 1032.54 604.902C1044.08 614.741 1051.17 631.173 1053 646C1054.64 667.758 1052.04 688.045 1038.8 705.984C1027.4 719.132 1012.22 727.772 994.698 729.285C991.294 729.4 987.906 729.41 984.5 729.375C983.367 729.387 982.234 729.398 981.067 729.41C963.462 729.35 949.163 723.134 936.668 710.848C932.934 706.862 929.849 702.65 927 698C926.477 697.183 925.953 696.365 925.414 695.523C924.008 693.015 923.194 690.766 922.438 688C921.683 685.331 920.927 682.82 919.875 680.25C914.42 666.222 916.053 643.644 922 630C922.447 628.952 922.895 627.904 923.356 626.824C926.437 620.19 930.187 614.494 935 609C935.571 608.323 936.142 607.646 936.731 606.949C944.301 598.637 955.132 592.745 966 590C967.172 589.653 968.344 589.306 969.551 588.949C974.783 587.655 979.948 587.67 985.313 587.688Z" fill="#0040FF"/>
<path d="M325.875 556.562C332.592 556.774 338.157 560.178 342.82 564.789C346.928 569.791 349.756 575.597 352.717 581.317C354.125 584.037 355.553 586.746 356.979 589.456C357.688 590.802 358.395 592.149 359.102 593.496C361.668 598.389 364.296 603.244 367 608.062C367.777 609.451 368.555 610.839 369.332 612.227C369.952 613.333 369.952 613.333 370.584 614.462C373.293 619.318 375.971 624.191 378.654 629.061C389.41 648.584 400.196 668.088 411.205 687.47C415.838 695.654 420.325 703.914 424.776 712.198C425.286 713.146 425.795 714.094 426.32 715.07C426.766 715.903 427.213 716.736 427.672 717.594C428.615 719.302 429.62 720.975 430.667 722.621C432 725 432 725 432 728C413.85 728 395.7 728 377 728C369.727 714.949 362.459 701.904 355.375 688.75C350.61 679.907 345.72 671.142 340.76 662.406C337.053 655.874 333.38 649.325 329.75 642.75C329.284 641.91 328.818 641.07 328.337 640.204C327.912 639.43 327.486 638.657 327.047 637.859C326.674 637.184 326.301 636.508 325.917 635.812C325 634 325 634 324 631C323.34 631 322.68 631 322 631C321.819 631.861 321.819 631.861 321.635 632.74C320.965 635.123 320.045 637.003 318.848 639.168C318.407 639.969 317.965 640.77 317.511 641.596C317.033 642.451 316.555 643.306 316.062 644.188C315.565 645.085 315.067 645.983 314.553 646.908C311.161 652.997 307.675 659.024 304.115 665.016C300.08 671.819 296.164 678.69 292.25 685.562C286.347 695.927 280.382 706.252 274.341 716.537C273.798 717.463 273.255 718.39 272.695 719.344C272.221 720.15 271.747 720.956 271.258 721.787C270.102 723.82 269.046 725.908 268 728C249.85 728 231.7 728 213 728C214.235 724.914 215.312 722.261 216.891 719.418C217.263 718.746 217.635 718.075 218.018 717.383C218.628 716.296 218.628 716.296 219.25 715.188C219.903 714.018 219.903 714.018 220.57 712.824C225.374 704.264 230.341 695.799 235.301 687.328C248.058 665.532 260.551 643.581 273.056 621.639C279.874 609.675 286.71 597.721 293.625 585.812C294.181 584.851 294.736 583.89 295.309 582.899C308.509 560.242 308.509 560.242 318 557.562C320.617 557.115 323.234 556.861 325.875 556.562Z" fill="#0040FF"/>
<path d="M272 448C275.007 450.784 276.981 453.421 278.883 457.043C279.406 458.027 279.929 459.01 280.468 460.024C281.015 461.068 281.562 462.112 282.125 463.188C286.913 472.268 286.913 472.268 292.109 481.117C292.578 481.876 293.047 482.635 293.531 483.417C294.402 484.807 295.288 486.188 296.192 487.557C298.104 490.622 298.994 492.742 299.082 496.375C297.645 501.188 295.386 505.145 292.812 509.438C292.28 510.347 291.748 511.257 291.199 512.194C290.06 514.137 288.916 516.078 287.768 518.016C284.842 522.955 281.955 527.917 279.062 532.875C278.477 533.876 277.892 534.876 277.289 535.907C271.61 545.628 266.082 555.431 260.557 565.24C253.286 578.127 245.887 590.937 238.42 603.711C232.199 614.358 226.042 625.041 219.887 635.727C218.02 638.965 216.151 642.201 214.281 645.438C206.174 659.47 198.112 673.528 190.08 687.604C186.491 693.893 182.898 700.18 179.305 706.467C177.646 709.37 175.987 712.273 174.328 715.176C171.885 719.451 169.443 723.725 167 728C148.85 728 130.7 728 112 728C113.545 724.137 115.112 720.876 117.168 717.301C117.806 716.188 118.444 715.075 119.102 713.928C119.797 712.723 120.492 711.518 121.188 710.312C121.91 709.054 122.633 707.796 123.355 706.537C125.566 702.689 127.782 698.844 130 695C130.648 693.876 131.296 692.753 131.963 691.595C134.423 687.331 136.883 683.068 139.346 678.805C143.981 670.778 148.591 662.737 153.188 654.688C153.525 654.096 153.863 653.504 154.211 652.895C157.018 647.979 159.823 643.063 162.628 638.146C168.476 627.895 174.347 617.657 180.25 607.438C185.501 598.346 190.731 589.242 195.938 580.125C196.268 579.546 196.599 578.967 196.94 578.37C200.314 572.461 203.687 566.55 207.056 560.638C208.745 557.675 210.435 554.712 212.125 551.75C212.458 551.167 212.791 550.583 213.133 549.982C217.725 541.936 222.374 533.927 227.062 525.938C233.945 514.196 240.543 502.302 247.125 490.39C268.789 451.211 268.789 451.211 272 448Z" fill="#0040FF"/>
<path d="M722 550C731.24 550 740.48 550 750 550C750 563.53 750 577.06 750 591C761.55 591 773.1 591 785 591C785 599.25 785 607.5 785 616C773.45 616 761.9 616 750 616C750.062 628.577 750.062 628.577 750.16 641.154C750.208 646.289 750.252 651.424 750.271 656.559C750.286 660.703 750.321 664.846 750.368 668.989C750.383 670.564 750.391 672.139 750.392 673.714C750.293 685.925 750.293 685.925 755 697C759.291 701.186 762.677 702.149 768.562 702.188C769.533 702.202 770.504 702.216 771.504 702.23C776.054 701.931 780.529 700.894 785 700C785 708.58 785 717.16 785 726C777.625 727.475 771.904 728.36 764.625 728.312C763.709 728.307 762.793 728.301 761.849 728.295C749.75 728.079 741.135 725.915 732.355 717.406C723.756 708.175 721.824 698.182 721.886 685.932C721.886 685.17 721.886 684.408 721.886 683.623C721.887 681.134 721.894 678.645 721.902 676.156C721.904 674.419 721.906 672.682 721.907 670.944C721.91 666.394 721.92 661.843 721.931 657.293C721.942 652.641 721.946 647.988 721.951 643.336C721.962 634.224 721.979 625.112 722 616C714.08 616 706.16 616 698 616C698 607.75 698 599.5 698 591C705.92 591 713.84 591 722 591C722 577.47 722 563.94 722 550Z" fill="#0040FF"/>
<path d="M807 529C816.9 529 826.8 529 837 529C837 594.34 837 659.68 837 727C827.1 727 817.2 727 807 727C807 661.66 807 596.32 807 529Z" fill="#0040FF"/>
<path d="M1007.38 621.188C1016.11 627.864 1021.58 637.374 1023.68 648.156C1025.54 664.81 1023.47 678.858 1012.81 692.25C1006.93 698.693 997.934 702.5 989.336 703.371C978.274 703.557 969.505 701.937 960.625 694.75C950.102 684.489 947.001 671.839 946.438 657.438C946.818 645.52 950.257 633.471 959 625C972.479 612.983 992.031 611.111 1007.38 621.188Z" fill="#FAFBFD"/>
<path d="M1143.25 588.813C1143.96 588.813 1144.66 588.814 1145.39 588.815C1148.52 588.841 1151.01 589.004 1154 590C1154 599.24 1154 608.48 1154 618C1145.06 617.875 1145.06 617.875 1142.3 617.82C1131.41 617.747 1122.45 620.228 1114.18 627.633C1107.21 635.182 1104.87 643.959 1104.79 653.982C1104.78 655.182 1104.78 655.182 1104.76 656.407C1104.73 659.047 1104.71 661.688 1104.68 664.328C1104.66 666.161 1104.64 667.994 1104.62 669.826C1104.57 674.647 1104.52 679.467 1104.47 684.287C1104.42 689.207 1104.36 694.127 1104.31 699.047C1104.2 708.698 1104.1 718.349 1104 728C1094.43 728 1084.86 728 1075 728C1075 682.79 1075 637.58 1075 591C1084.57 591 1094.14 591 1104 591C1104.33 597.6 1104.66 604.2 1105 611C1106.98 608.36 1108.96 605.72 1111 603C1120.02 593.513 1130.06 588.579 1143.25 588.813Z" fill="#0040FF"/>
<path d="M868 591C877.57 591 887.14 591 897 591C897 635.88 897 680.76 897 727C887.43 727 877.86 727 868 727C868 682.12 868 637.24 868 591Z" fill="#0040FF"/>
<path d="M614 571C617.284 574.653 618.443 578.909 619.875 583.5C623.194 593.791 626.815 603.961 630.5 614.125C630.783 614.908 631.066 615.691 631.358 616.498C634.004 623.81 636.657 631.119 639.395 638.398C639.727 639.285 640.06 640.172 640.402 641.085C640.986 642.634 641.575 644.18 642.172 645.723C643.443 649.088 644 651.337 644 655C624.2 655 604.4 655 584 655C586.247 644.889 586.247 644.889 587.809 640.793C588.156 639.868 588.504 638.943 588.863 637.99C589.238 637.003 589.613 636.017 590 635C590.826 632.768 591.65 630.534 592.473 628.301C593.336 625.971 594.199 623.642 595.062 621.312C595.496 620.141 595.93 618.97 596.377 617.764C597.012 616.05 597.012 616.05 597.66 614.301C598.273 612.648 598.273 612.648 598.897 610.962C599.763 608.637 600.64 606.318 601.523 604C604.117 597.104 606.41 590.093 608.771 583.115C609.158 581.988 609.544 580.861 609.941 579.699C610.289 578.677 610.636 577.654 610.994 576.6C612 574 612 574 614 571Z" fill="#F9FAFD"/>
<path d="M889 529C892.241 530.506 894.531 532.441 897 535C897.825 535.846 898.65 536.691 899.5 537.563C901.884 543.026 901.91 548.147 901 554C898.972 559.121 895.969 562.803 891.188 565.563C885.637 567.876 880.469 567.823 874.813 565.938C869.358 562.18 865.35 557.615 864 551C863.425 544.961 864.089 540.852 868 536C874.608 529.466 879.585 527.761 889 529Z" fill="#0040FF"/>
<path d="M120 713C121.044 716.133 120.934 716.99 120 720C119.34 720 118.68 720 118 720C118 721.65 118 723.3 118 725C118.582 724.987 119.164 724.975 119.764 724.962C125.815 724.832 131.865 724.702 137.916 724.573C140.175 724.524 142.434 724.476 144.693 724.427C147.937 724.357 151.182 724.288 154.426 724.219C155.945 724.186 155.945 724.186 157.494 724.152C158.435 724.132 159.376 724.112 160.345 724.092C161.173 724.074 162.002 724.056 162.855 724.038C164.57 724.008 166.285 724 168 724C167.67 725.32 167.34 726.64 167 728C148.85 728 130.7 728 112 728C113.525 724.187 115.008 721.14 117.125 717.688C117.664 716.804 118.203 715.921 118.758 715.012C119.168 714.348 119.578 713.684 120 713Z" fill="#173DF9"/>
<path d="M120 713C121.044 716.133 120.934 716.99 120 720C119.34 720 118.68 720 118 720C118 721.98 118 723.96 118 726C116.35 726 114.7 726 113 726C113.977 724.02 114.956 722.041 115.938 720.062C116.483 718.96 117.028 717.858 117.59 716.723C119 714 119 714 120 713Z" fill="#2149F8"/>
<path d="M1004 700C1003.45 700.265 1002.89 700.531 1002.32 700.805C1001.23 701.334 1001.23 701.334 1000.12 701.875C999.406 702.223 998.686 702.571 997.945 702.93C995.849 703.965 995.849 703.965 994 706C992.68 706 991.36 706 990 706C990 705.34 990 704.68 990 704C987.69 704 985.38 704 983 704C983 703.67 983 703.34 983 703C984.303 702.818 984.303 702.818 985.633 702.633C986.785 702.465 987.938 702.298 989.125 702.125C990.83 701.881 990.83 701.881 992.57 701.633C996.023 701.083 996.023 701.083 999.305 699.867C1002 699 1002 699 1004 700Z" fill="#1D47F9"/>
<path d="M330 557C330 557.66 330 558.32 330 559C326.019 560.171 322.084 561.258 318 562C318 561.01 318 560.02 318 559C317.34 558.67 316.68 558.34 316 558C320.763 557.047 325.167 556.917 330 557Z" fill="#2140FB"/>
<path d="M316 559C316 559.66 316 560.32 316 561C315.34 561 314.68 561 314 561C313.752 561.598 313.505 562.196 313.25 562.812C311.819 565.316 310.431 566.481 308 568C307.34 568 306.68 568 306 568C306 568.66 306 569.32 306 570C305.34 570 304.68 570 304 570C305.439 566.613 307.221 564.641 310 562.25C310.701 561.636 311.402 561.023 312.125 560.391C314 559 314 559 316 559Z" fill="#1742FB"/>
<path d="M949 643C950.619 645.572 951.044 646.677 950.625 649.75C950.419 650.493 950.213 651.235 950 652C949.34 652 948.68 652 948 652C948 656.29 948 660.58 948 665C947.67 665 947.34 665 947 665C946.945 662.646 946.906 660.292 946.875 657.938C946.852 656.627 946.829 655.316 946.805 653.965C947.006 649.882 947.728 646.85 949 643Z" fill="#B6CDFD"/>
<path d="M614 571C617 574.625 617 574.625 617 578C616.402 578.289 615.804 578.577 615.188 578.875C612.807 580.047 612.807 580.047 610 582C610.477 580.541 610.957 579.083 611.438 577.625C611.704 576.813 611.971 576.001 612.246 575.164C613 573 613 573 614 571Z" fill="#D1DFFD"/>
<path d="M281 699C281.66 699.66 282.32 700.32 283 701C281.02 704.63 279.04 708.26 277 712C276.34 711.67 275.68 711.34 275 711C276.566 706.692 278.683 702.938 281 699Z" fill="#0F41FA"/>
<path d="M701.188 723.375C702.085 723.684 702.085 723.684 703 724C703 724.99 703 725.98 703 727C698.38 727 693.76 727 689 727C689 726.67 689 726.34 689 726C690.093 725.876 691.186 725.752 692.312 725.625C695.757 725.041 697.92 722.815 701.188 723.375Z" fill="#1040F4"/>
<path d="M294 486C296.325 488.853 297.751 491.541 299 495C298.01 495 297.02 495 296 495C294.68 492.36 293.36 489.72 292 487C292.66 486.67 293.32 486.34 294 486Z" fill="#2753FD"/>
<path d="M894 717C894.33 717 894.66 717 895 717C895.33 720.3 895.66 723.6 896 727C893.03 726.505 893.03 726.505 890 726C890.474 725.629 890.949 725.257 891.438 724.875C893.522 722.374 893.646 720.184 894 717Z" fill="#0A3BF8"/>
<path d="M943 601C943.66 601.33 944.32 601.66 945 602C944.239 603.152 943.466 604.297 942.688 605.438C942.258 606.076 941.829 606.714 941.387 607.371C940 609 940 609 937 610C937 607 937 607 938.312 605.395C938.869 604.872 939.426 604.35 940 603.812C940.557 603.283 941.114 602.753 941.688 602.207C942.337 601.61 942.337 601.61 943 601Z" fill="#143DF6"/>
<path d="M526 721C527.32 721.66 528.64 722.32 530 723C530 723.66 530 724.32 530 725C530.99 724.67 531.98 724.34 533 724C533.33 724.66 533.66 725.32 534 726C529.545 726.495 529.545 726.495 525 727C525.33 725.02 525.66 723.04 526 721Z" fill="#173FF5"/>
<path d="M925 624C925.33 624 925.66 624 926 624C926.312 627.25 926.312 627.25 926 631C923.5 633.438 923.5 633.438 921 635C921.475 633.353 921.955 631.707 922.438 630.062C922.704 629.146 922.971 628.229 923.246 627.285C924 625 924 625 925 624Z" fill="#2F52F9"/>
<path d="M289 685C289.99 685.33 290.98 685.66 292 686C290.68 688.31 289.36 690.62 288 693C287.01 693 286.02 693 285 693C286.125 690.028 287.223 687.666 289 685Z" fill="#1444FB"/>
<path d="M884 529C884.99 529.66 885.98 530.32 887 531C885.377 531.222 883.751 531.427 882.125 531.625C880.768 531.799 880.768 531.799 879.383 531.977C878.596 531.984 877.81 531.992 877 532C876.34 531.34 875.68 530.68 875 530C878.019 528.491 880.673 528.825 884 529Z" fill="#294BFD"/>
<path d="M677 663C677.99 663 678.98 663 680 663C680.66 665.64 681.32 668.28 682 671C681.34 671 680.68 671 680 671C677.256 668.045 677 667.225 677 663Z" fill="#1B44F8"/>
<path d="M583 574C583.99 574.33 584.98 574.66 586 575C585.34 576.98 584.68 578.96 584 581C583.01 581 582.02 581 581 581C581.66 578.69 582.32 576.38 583 574Z" fill="#1844FC"/>
<path d="M252 482C252.99 482.33 253.98 482.66 255 483C255 483.99 255 484.98 255 486C251.667 489 251.667 489 249 489C250.875 484.25 250.875 484.25 252 482Z" fill="#1540F7"/>
<path d="M156 650C156.66 650.99 157.32 651.98 158 653C157.34 654.32 156.68 655.64 156 657C155.01 657 154.02 657 153 657C154.875 652.25 154.875 652.25 156 650Z" fill="#1743FA"/>
<path d="M1153 613C1153.33 613 1153.66 613 1154 613C1154 614.65 1154 616.3 1154 618C1151.36 617.67 1148.72 617.34 1146 617C1146 616.67 1146 616.34 1146 616C1147.45 615.536 1147.45 615.536 1148.94 615.062C1151.84 614.305 1151.84 614.305 1153 613Z" fill="#153FFA"/>
<path d="M951 596C951.33 596.99 951.66 597.98 952 599C950.188 600.562 950.188 600.562 948 602C947.01 601.67 946.02 601.34 945 601C948.75 597.125 948.75 597.125 951 596Z" fill="#1546FC"/>
<path d="M272 623C272.66 624.32 273.32 625.64 274 627C272.625 629 272.625 629 271 631C270.34 631 269.68 631 269 631C270.875 625.25 270.875 625.25 272 623Z" fill="#264CFB"/>
<path d="M316 558C318.64 558.33 321.28 558.66 324 559C322.688 560.5 322.688 560.5 321 562C320.01 562 319.02 562 318 562C318 561.01 318 560.02 318 559C317.34 558.67 316.68 558.34 316 558Z" fill="#1542F3"/>
<path d="M293 503C293.66 503.66 294.32 504.32 295 505C294.01 506.98 293.02 508.96 292 511C291.34 509.68 290.68 508.36 290 507C290.99 505.68 291.98 504.36 293 503Z" fill="#1444FB"/>
</g>
<defs>
<clipPath id="clip0_9_150">
<rect width="1254" height="1254" fill="white"/>
</clipPath>
</defs>
</svg>
