<svg xmlns="http://www.w3.org/2000/svg" width="320" height="280" viewBox="0 0 320 280" fill="none"><metadata><rdf:RDF xmlns:rdf="http://www.w3.org/1999/02/22-rdf-syntax-ns#" xmlns:dc="http://purl.org/dc/elements/1.1/"><rdf:Description><dc:creator>RealFaviconGenerator</dc:creator><dc:source>https://realfavicongenerator.net</dc:source></rdf:Description></rdf:RDF></metadata><path d="M213.875 108.562C220.592 108.774 226.157 112.178 230.82 116.789C234.928 121.791 237.756 127.597 240.717 133.317C242.125 136.037 243.553 138.746 244.979 141.456C245.688 142.802 246.395 144.149 247.102 145.496C249.668 150.389 252.296 155.244 255 160.062C255.777 161.451 256.555 162.839 257.332 164.227C257.952 165.333 257.952 165.333 258.584 166.462C261.293 171.318 263.971 176.191 266.654 181.061C277.41 200.584 288.196 220.088 299.205 239.47C303.838 247.654 308.325 255.914 312.776 264.198C313.286 265.146 313.795 266.094 314.32 267.07C314.766 267.903 315.213 268.736 315.672 269.594C316.615 271.302 317.62 272.975 318.667 274.621C320 277 320 277 320 280C301.85 280 283.7 280 265 280C257.727 266.949 250.459 253.904 243.375 240.75C238.61 231.907 233.72 223.142 228.76 214.406C225.053 207.874 221.38 201.325 217.75 194.75C217.284 193.91 216.818 193.07 216.337 192.204C215.912 191.43 215.486 190.657 215.047 189.859C214.674 189.184 214.301 188.508 213.917 187.812C213 186 213 186 212 183C211.34 183 210.68 183 210 183C209.819 183.861 209.819 183.861 209.635 184.74C208.965 187.123 208.045 189.003 206.848 191.168C206.407 191.969 205.965 192.77 205.511 193.596C205.033 194.451 204.555 195.306 204.062 196.188C203.565 197.085 203.067 197.983 202.553 198.908C199.161 204.997 195.675 211.024 192.115 217.016C188.08 223.819 184.164 230.69 180.25 237.562C174.347 247.927 168.382 258.252 162.341 268.537C161.798 269.463 161.255 270.39 160.695 271.344C160.221 272.15 159.747 272.956 159.258 273.787C158.102 275.82 157.046 277.908 156 280C137.85 280 119.7 280 101 280C102.235 276.914 103.312 274.261 104.891 271.418C105.263 270.746 105.635 270.075 106.018 269.383C106.628 268.296 106.628 268.296 107.25 267.188C107.903 266.018 107.903 266.018 108.57 264.824C113.374 256.264 118.341 247.799 123.301 239.328C136.058 217.532 148.551 195.581 161.056 173.639C167.874 161.675 174.71 149.721 181.625 137.812C182.181 136.851 182.736 135.89 183.309 134.899C196.509 112.242 196.509 112.242 206 109.562C208.617 109.115 211.234 108.861 213.875 108.562Z" fill="#0040FF"></path><path d="M160 0C163.007 2.7842 164.981 5.42056 166.883 9.04297C167.406 10.0266 167.929 11.0102 168.468 12.0237C169.015 13.0677 169.562 14.1118 170.125 15.1875C174.913 24.2677 174.913 24.2677 180.109 33.1172C180.578 33.8762 181.047 34.6352 181.531 35.4172C182.402 36.8074 183.288 38.1883 184.192 39.5574C186.104 42.6219 186.994 44.742 187.082 48.375C185.645 53.1877 183.386 57.1454 180.812 61.4375C180.28 62.3471 179.748 63.2567 179.199 64.1938C178.06 66.1374 176.916 68.0781 175.768 70.0161C172.842 74.955 169.955 79.9165 167.062 84.875C166.477 85.8756 165.892 86.8763 165.289 87.9072C159.61 97.628 154.082 107.431 148.557 117.24C141.286 130.127 133.887 142.937 126.42 155.711C120.199 166.358 114.042 177.041 107.887 187.727C106.02 190.965 104.151 194.201 102.281 197.438C94.1738 211.47 86.1123 225.528 78.08 239.604C74.4909 245.893 70.8978 252.18 67.3047 258.467C65.6457 261.37 63.9869 264.273 62.3281 267.176C59.8854 271.451 57.4427 275.725 55 280C36.85 280 18.7 280 0 280C1.5454 276.137 3.11207 272.876 5.16797 269.301C5.80605 268.188 6.44414 267.075 7.10156 265.928C7.7968 264.723 8.49212 263.518 9.1875 262.312C9.91042 261.054 10.6331 259.796 11.3555 258.537C13.5657 254.689 15.7823 250.844 18 247C18.6479 245.876 19.2958 244.753 19.9634 243.595C22.4229 239.331 24.8833 235.068 27.3457 230.805C31.9812 222.778 36.5909 214.737 41.1875 206.688C41.5254 206.096 41.8633 205.504 42.2114 204.895C45.0182 199.979 47.8234 195.063 50.6279 190.146C56.4757 179.895 62.3468 169.657 68.25 159.438C73.5012 150.346 78.7309 141.242 83.9375 132.125C84.2682 131.546 84.599 130.967 84.9398 130.37C88.3145 124.461 91.6866 118.55 95.0558 112.638C96.7448 109.675 98.4347 106.712 100.125 103.75C100.458 103.167 100.791 102.583 101.133 101.982C105.725 93.9365 110.374 85.9266 115.062 77.9375C121.945 66.1957 128.543 54.3024 135.125 42.3901C156.789 3.21134 156.789 3.21134 160 0Z" fill="#0040FF"></path><style>@media (prefers-color-scheme: light) { :root { filter: none; } }
@media (prefers-color-scheme: dark) { :root { filter: contrast(0.3846153846153846) brightness(4.5); } }
</style></svg>